HIERARCHY
ROOT joint_0
{
	OFFSET 0.000000 0.000000 0.000000
	CHANNELS 6 Xposition Yposition Zposition Zrotation Yrotation Xrotation 
	JOINT joint_1
	{
		OFFSET 11.612000 -0.419000 106.198000
		CHANNELS 3 Zrotation Yrotation Xrotation
		JOINT joint_2
		{
			OFFSET -1.708000 -1.022000 97.564090
			CHANNELS 3 Zrotation Yrotation Xrotation
			JOINT joint_3
			{
				OFFSET -4.121000 -1.538000 97.375000
				CHANNELS 3 Zrotation Yrotation Xrotation
				JOINT joint_4
				{
					OFFSET 5.442000 -2.123000 132.795900
					CHANNELS 3 Zrotation Yrotation Xrotation
					JOINT joint_5
					{
						OFFSET 21.935000 0.195000 82.975100
						CHANNELS 3 Zrotation Yrotation Xrotation
						End Site
						{
							OFFSET 0.000000 0.000000 0.000000
						}
					}
				}
				JOINT joint_6
				{
					OFFSET 4.262000 -30.048000 73.899900
					CHANNELS 3 Zrotation Yrotation Xrotation
					JOINT joint_7
					{
						OFFSET 9.731000 -136.810010 -21.963010
						CHANNELS 3 Zrotation Yrotation Xrotation
						JOINT joint_8
						{
							OFFSET 33.360000 -35.709000 -267.597900
							CHANNELS 3 Zrotation Yrotation Xrotation
							JOINT joint_9
							{
								OFFSET 36.156000 -29.759000 -240.558040
								CHANNELS 3 Zrotation Yrotation Xrotation
								End Site
								{
									OFFSET 0.000000 0.000000 0.000000
								}
							}
						}
					}
				}
				JOINT joint_10
				{
					OFFSET 2.027000 27.734000 74.914920
					CHANNELS 3 Zrotation Yrotation Xrotation
					JOINT joint_11
					{
						OFFSET -5.183000 136.784000 -23.604980
						CHANNELS 3 Zrotation Yrotation Xrotation
						JOINT joint_12
						{
							OFFSET 29.806000 37.229000 -267.809940
							CHANNELS 3 Zrotation Yrotation Xrotation
							JOINT joint_13
							{
								OFFSET 36.890000 46.524990 -237.772030
								CHANNELS 3 Zrotation Yrotation Xrotation
								End Site
								{
									OFFSET 0.000000 0.000000 0.000000
								}
							}
						}
					}
				}
			}
		}
	}
	JOINT joint_14
	{
		OFFSET -7.290000 -102.873990 -124.314940
		CHANNELS 3 Zrotation Yrotation Xrotation
		JOINT joint_15
		{
			OFFSET -15.466000 -19.909010 -438.533020
			CHANNELS 3 Zrotation Yrotation Xrotation
			JOINT joint_16
			{
				OFFSET -26.899000 -18.922000 -464.797000
				CHANNELS 3 Zrotation Yrotation Xrotation
				JOINT joint_17
				{
					OFFSET 179.329000 -12.011000 -84.174000
					CHANNELS 3 Zrotation Yrotation Xrotation
					End Site
					{
						OFFSET 0.000000 0.000000 0.000000
					}
				}
			}
		}
	}
	JOINT joint_18
	{
		OFFSET -6.225000 101.546000 -125.479980
		CHANNELS 3 Zrotation Yrotation Xrotation
		JOINT joint_19
		{
			OFFSET -13.973000 7.996000 -438.963010
			CHANNELS 3 Zrotation Yrotation Xrotation
			JOINT joint_20
			{
				OFFSET -44.294000 5.716000 -463.813970
				CHANNELS 3 Zrotation Yrotation Xrotation
				JOINT joint_21
				{
					OFFSET 178.505000 -4.689000 -85.139000
					CHANNELS 3 Zrotation Yrotation Xrotation
					End Site
					{
						OFFSET 0.000000 0.000000 0.000000
					}
				}
			}
		}
	}
}
MOTION
Frames: 12
Frame Time: 0.016667
-59.191000 -38.032000 1129.749020 0.259750 0.361720 0.610580 -0.860000 1.427200 -0.104030 -0.874620 -0.284110 -0.074910 -0.859870 0.310120 0.042110 0.040010 0.460440 -0.155900 0.000000 0.000000 0.000000 -0.834890 -0.276040 0.536400 0.166820 -0.417280 0.806100 0.170610 -0.607250 0.624750 0.000000 0.000000 0.000000 -3.009940 -1.416330 0.589570 -0.132820 -0.963300 -0.588860 0.215050 0.727630 0.452840 0.000000 0.000000 0.000000 0.790630 1.970010 -1.811970 0.829490 -0.452980 0.380510 0.879710 -1.563150 0.307670 0.000000 0.000000 0.000000 1.927960 1.799940 2.184320 1.958810 -1.424130 -0.453170 1.855260 0.222540 0.886430 0.000000 0.000000 0.000000 
-56.627000 -38.717000 1130.316040 0.603880 0.982750 0.671730 -0.735440 1.323380 -0.049540 -0.748970 -0.189230 -0.093610 -0.736830 0.158310 0.057120 0.046310 -0.179230 -0.172730 0.000000 0.000000 0.000000 -1.246810 0.229320 0.138290 0.111380 0.051360 0.690530 0.440310 -1.570020 1.598100 0.000000 0.000000 0.000000 -3.163260 -1.285920 0.624500 -0.130560 -0.789700 -0.118150 -0.030740 0.229120 -0.492750 0.000000 0.000000 0.000000 0.691140 1.653530 -1.838790 0.731430 -0.814010 0.375290 0.765580 -1.459320 0.261080 0.000000 0.000000 0.000000 1.788200 1.311400 2.236170 1.828310 -1.643440 -0.579120 1.724060 0.410430 0.828910 0.000000 0.000000 0.000000 
-52.674000 -39.521000 1130.850950 0.971150 1.715240 0.733880 -0.674620 1.413240 -0.031820 -0.688100 -0.189360 -0.084230 -0.677140 0.124370 0.050450 0.053500 -1.311700 -0.187520 0.000000 0.000000 0.000000 -1.431310 0.790210 -0.412260 0.077230 0.642880 0.890390 0.722700 -2.788220 2.439930 0.000000 0.000000 0.000000 -3.279180 -0.944760 0.922820 -0.156600 -0.437570 0.070090 -0.368920 -0.702520 -1.518490 0.000000 0.000000 0.000000 0.591220 1.297230 -1.858930 0.631580 -1.178830 0.384940 0.651210 -1.365990 0.213650 0.000000 0.000000 0.000000 1.645280 0.835140 2.290890 1.691290 -1.986410 -0.691040 1.590720 0.646110 0.771490 0.000000 0.000000 0.000000 
-46.630000 -40.505000 1131.271970 1.343840 2.639980 0.789020 -0.735420 1.881950 -0.087470 -0.749520 -0.358650 -0.015360 -0.737730 0.297290 0.002840 0.059660 -3.430270 -0.187350 0.000000 0.000000 0.000000 -1.222260 1.463640 -1.307590 0.092970 1.479020 1.761940 1.058260 -4.680050 3.085110 0.000000 0.000000 0.000000 -3.238260 -0.170840 1.705610 -0.238280 0.273040 -0.252560 -0.934680 -2.728580 -2.738850 0.000000 0.000000 0.000000 0.513620 0.932740 -1.861800 0.562340 -1.699350 0.403580 0.560710 -1.242670 0.179340 0.000000 0.000000 0.000000 1.497020 0.450550 2.356330 1.538560 -2.696470 -0.772030 1.453720 1.011350 0.715490 0.000000 0.000000 0.000000 
-39.198000 -41.608000 1131.660030 1.739520 3.658640 0.845340 -0.866530 2.572290 -0.158940 -0.879250 -0.578900 0.068400 -0.866280 0.519460 -0.064230 0.061090 -6.087830 -0.154410 0.000000 0.000000 0.000000 -0.833840 2.199950 -2.219790 0.129320 2.428990 2.833100 1.397610 -6.812660 3.581020 0.000000 0.000000 0.000000 -3.091480 0.814900 2.541060 -0.293670 1.182680 -0.648920 -1.571350 -5.242580 -4.009810 0.000000 0.000000 0.000000 0.434260 0.550810 -1.850610 0.492230 -2.231090 0.431850 0.470140 -1.108550 0.145700 0.000000 0.000000 0.000000 1.346490 0.101210 2.433400 1.378540 -3.538790 -0.841510 1.315960 1.452900 0.661030 0.000000 0.000000 0.000000 
-32.050000 -42.533000 1132.081050 2.130820 4.434350 0.906730 -0.991630 3.160110 -0.186120 -1.000620 -0.693810 0.098780 -0.986300 0.626010 -0.097500 0.053110 -8.094560 -0.081110 0.000000 0.000000 0.000000 -0.338970 2.720750 -2.545930 0.126440 3.101970 3.307350 1.547280 -7.864370 3.753430 0.000000 0.000000 0.000000 -3.097860 1.511820 2.893510 -0.271940 1.877490 -0.743030 -1.906590 -6.563340 -4.774030 0.000000 0.000000 0.000000 0.312720 0.113880 -1.844070 0.349000 -2.197760 0.508990 0.338140 -1.129250 0.082470 0.000000 0.000000 0.000000 1.238410 -0.295830 2.486110 1.270810 -3.807930 -0.903000 1.216320 1.695990 0.619670 0.000000 0.000000 0.000000 
-25.888000 -43.175000 1132.526980 2.535280 4.831710 0.994460 -1.084670 3.480740 -0.181480 -1.090110 -0.682110 0.060480 -1.072800 0.627220 -0.072230 0.033340 -9.012950 0.015450 0.000000 0.000000 0.000000 0.455890 2.911580 -2.037430 0.031060 3.353590 2.771570 1.430720 -7.134860 3.666380 0.000000 0.000000 0.000000 -3.528630 1.706740 2.655660 -0.178280 2.182380 -0.466580 -1.791640 -5.762720 -4.941000 0.000000 0.000000 0.000000 0.106260 -0.463530 -1.878110 0.065850 -1.237110 0.678340 0.119330 -1.410680 -0.038550 0.000000 0.000000 0.000000 1.203380 -0.848080 2.460470 1.255640 -3.091080 -0.952920 1.181450 1.576780 0.599730 0.000000 0.000000 0.000000 
-20.009000 -43.638000 1133.005980 2.935630 5.000590 1.088080 -1.168170 3.688670 -0.163180 -1.171490 -0.635360 -0.001810 -1.149910 0.619070 -0.021600 0.005740 -9.312550 0.122660 0.000000 0.000000 0.000000 1.457100 2.875200 -1.087620 -0.098660 3.339280 1.733920 1.157510 -5.352850 3.347440 0.000000 0.000000 0.000000 -4.197830 1.615980 2.122780 -0.040470 2.259820 -0.067970 -1.398890 -3.777680 -4.650670 0.000000 0.000000 0.000000 -0.142530 -1.114830 -1.932450 -0.291410 0.291330 0.894310 -0.140000 -1.813500 -0.186500 0.000000 0.000000 0.000000 1.207990 -1.465630 2.388970 1.291170 -1.797920 -0.969970 1.185620 1.267780 0.593300 0.000000 0.000000 0.000000 
-13.983000 -43.937000 1133.607060 3.247650 5.045870 1.127560 -1.229330 3.935950 -0.092020 -1.233730 -0.635730 -0.058980 -1.206900 0.650750 0.022340 -0.021290 -9.178730 0.216840 0.000000 0.000000 0.000000 2.214900 2.655910 -0.227320 -0.176350 3.127680 0.960400 0.797060 -3.385490 2.519910 0.000000 0.000000 0.000000 -4.770730 1.411130 1.605880 0.090460 2.197840 0.110390 -0.890560 -1.755820 -3.698290 0.000000 0.000000 0.000000 -0.344160 -1.664930 -1.947540 -0.596850 1.884210 1.080940 -0.345840 -2.176480 -0.306640 0.000000 0.000000 0.000000 1.201300 -1.952080 2.364670 1.315570 -0.450670 -0.946890 1.185710 0.950650 0.584590 0.000000 0.000000 0.000000 
-7.802000 -44.005000 1134.376950 3.425930 4.988110 1.068560 -1.254330 4.342250 0.095300 -1.265850 -0.739870 -0.114530 -1.230880 0.763470 0.055460 -0.044440 -8.622920 0.292620 0.000000 0.000000 0.000000 2.479480 2.178720 0.375910 -0.174120 2.634310 0.777480 0.282010 -1.298900 0.773260 0.000000 0.000000 0.000000 -5.129650 1.078550 1.203860 0.194720 1.947300 -0.169590 -0.239610 0.030840 -1.614930 0.000000 0.000000 0.000000 -0.468630 -2.115300 -1.885200 -0.817420 3.500890 1.232730 -0.468350 -2.497810 -0.384920 0.000000 0.000000 0.000000 1.165140 -2.285700 2.448050 1.310390 0.884730 -0.895400 1.165790 0.618750 0.565850 0.000000 0.000000 0.000000 
-1.473000 -43.909000 1135.269040 3.516850 4.806820 0.954890 -1.255790 4.791190 0.329260 -1.278980 -0.897420 -0.166980 -1.234450 0.921130 0.086510 -0.067730 -7.633800 0.364150 0.000000 0.000000 0.000000 2.478740 1.518890 0.942550 -0.154340 1.934940 0.821900 -0.366670 0.943750 -1.588070 0.000000 0.000000 0.000000 -5.384860 0.624870 0.787540 0.333360 1.558630 -0.642360 0.565610 1.813480 1.187270 0.000000 0.000000 0.000000 -0.547380 -2.462730 -1.782800 -0.987590 5.180010 1.357050 -0.539840 -2.765100 -0.435570 0.000000 0.000000 0.000000 1.116730 -2.487400 2.583200 1.293000 2.272180 -0.820200 1.142670 0.291560 0.545530 0.000000 0.000000 0.000000 
5.407000 -43.859000 1136.223020 3.573750 4.547100 0.854310 -1.261410 5.071640 0.469570 -1.294890 -1.006550 -0.199210 -1.244370 1.029710 0.106710 -0.096040 -6.339480 0.450650 0.000000 0.000000 0.000000 2.476040 0.954040 1.438060 -0.146130 1.344840 0.952930 -0.940820 2.639440 -3.815210 0.000000 0.000000 0.000000 -5.545610 0.283320 0.416910 0.492910 1.272390 -1.008130 1.269960 3.224760 3.586410 0.000000 0.000000 0.000000 -0.581820 -2.530080 -1.688240 -1.085190 6.548530 1.425790 -0.561350 -2.886330 -0.453010 0.000000 0.000000 0.000000 1.063410 -2.431080 2.703890 1.260640 3.395540 -0.729860 1.115460 0.119020 0.527170 0.000000 0.000000 0.000000 
